<?xml version="1.0" encoding="iso-8859-1"?>
<!-- Generator: Adobe Illustrator 16.0.0, SVG Export Plug-In . SVG Version: 6.00 Build 0)  -->
<!DOCTYPE svg PUBLIC "-//W3C//DTD SVG 1.1//EN" "http://www.w3.org/Graphics/SVG/1.1/DTD/svg11.dtd">
<svg version="1.1" id="Capa_1" xmlns="http://www.w3.org/2000/svg" xmlns:xlink="http://www.w3.org/1999/xlink" x="0px" y="0px"
	 width="587.471px" height="587.471px" viewBox="0 0 587.471 587.471" style="enable-background:new 0 0 587.471 587.471;"
	 xml:space="preserve">
<g>
	<g>
		<path d="M220.302,440.604c121.476,0,220.302-98.826,220.302-220.302C440.604,98.826,341.777,0,220.302,0
			C98.826,0,0,98.826,0,220.302C0,341.777,98.826,440.604,220.302,440.604z M220.302,71.142
			c82.247,0,149.159,66.913,149.159,149.159c0,82.248-66.912,149.16-149.159,149.16s-149.16-66.912-149.16-149.16
			C71.142,138.055,138.055,71.142,220.302,71.142z"/>
		<path d="M525.523,587.471c16.555,0,32.113-6.447,43.801-18.158c11.699-11.68,18.146-27.234,18.146-43.791
			c0-16.553-6.447-32.115-18.152-43.822L446.643,359.023c-3.262-3.262-7.475-5.061-11.859-5.061c-5.449,0-10.465,2.711-13.762,7.438
			c-16.238,23.318-36.297,43.377-59.613,59.615c-4.258,2.965-6.947,7.467-7.379,12.352c-0.428,4.828,1.393,9.666,4.998,13.27
			l122.674,122.676C493.406,581.023,508.969,587.471,525.523,587.471z"/>
	</g>
</g>
<g>
</g>
<g>
</g>
<g>
</g>
<g>
</g>
<g>
</g>
<g>
</g>
<g>
</g>
<g>
</g>
<g>
</g>
<g>
</g>
<g>
</g>
<g>
</g>
<g>
</g>
<g>
</g>
<g>
</g>
</svg>
